<svg xmlns="http://www.w3.org/2000/svg" viewBox="0 0 32 32">
  <rect width="32" height="32" rx="7" fill="#171a22"/>
  <!-- speech / réplique mark: two stage-gel quotation strokes -->
  <path d="M11 9.5c-2.4 0-4.3 1.9-4.3 4.3 0 2.3 1.7 4.1 3.9 4.3-.2 1.6-1 2.7-2.4 3.4-.5.2-.6.9-.2 1.2.2.2.5.2.7.1 2.9-1.2 4.6-3.6 4.6-7V13.8c0-2.4-1.9-4.3-4.3-4.3z" fill="#4f7cff"/>
  <path d="M22.5 9.5c-2.4 0-4.3 1.9-4.3 4.3 0 2.3 1.7 4.1 3.9 4.3-.2 1.6-1 2.7-2.4 3.4-.5.2-.6.9-.2 1.2.2.2.5.2.7.1 2.9-1.2 4.6-3.6 4.6-7V13.8c0-2.4-1.9-4.3-4.3-4.3z" fill="#12b5d4"/>
</svg>
